<svg
   xmlns:svg="http://www.w3.org/2000/svg"
   xmlns="http://www.w3.org/2000/svg"
   version="1.1"
   width="467.66931"
   height="467.72086"
   viewBox="0 0 467.02979 469.96338"
   id="Layer_1"
   xml:space="preserve"><defs
   id="defs3769" />
<path
   d="M 413.82461,144.80789 C 413.93497,144.76248 438.57461,193.55789 434.20254,245.43289 L 434.20254,245.43289 C 431.82461,332.55789 354.82461,431.39188 240.07462,434.60184 L 224.07462,434.26883 C 105.82461,428.39188 33.158108,328.05789 33.491116,237.39188 L 33.491116,237.39188 C 33.783108,220.5369 33.715237,201.6951 40.824612,178.39139 L 48.074612,180.55789 C 78.379788,192.01199 111.07461,280.55789 217.3671,285.59793 C 221.98136,285.81668 230.84464,286.02078 230.82462,286.05789 C 223.94425,292.92215 184.82462,309.05789 167.07462,313.30789 C 171.71622,312.19656 166.71182,313.19363 167.07462,313.30789 L 167.07462,313.30789 C 209.82462,339.80789 252.57462,288.80789 308.07461,281.30789 L 325.07461,280.30789 C 321.82461,270.05789 307.19278,270.92313 305.82461,271.05789 C 267.4252,274.83817 277.01798,270.43387 275.82461,270.80789 C 334.82461,252.30789 368.82461,205.05789 411.28751,147.59793 L 413.82461,144.80789 z"
   id="path3758"
   style="fill:#007ec6" />
<path
   d="M 328.07461,56.557892 C 323.95157,54.365021 289.32461,33.557892 236.1586,32.724396 C 120.90421,33.139435 70.158108,117.7244 70.158108,117.7244 C 95.658108,130.2244 122.11856,167.86844 122.49111,168.39139 C 151.02872,208.43094 190.79825,270.49149 242.32657,271.67801 C 258.82461,272.05789 269.79825,262.18875 282.32461,250.05789 C 328.06876,205.75516 334.47305,123.84842 393.07461,112.30789 C 393.07461,112.30789 371.32461,79.557892 328.07461,56.557892 z M 200.37753,110.73465 L 214.07491,110.73465 C 219.60068,110.73465 224.04922,115.18319 224.04922,120.70896 L 224.04922,153.67734 C 224.04922,159.20311 219.60068,163.65165 214.07491,163.65165 L 200.37753,163.65165 C 194.85176,163.65165 190.40322,159.20311 190.40322,153.67734 L 190.40322,120.70896 C 190.40322,115.18319 194.85176,110.73465 200.37753,110.73465 z M 204.02692,119.81465 L 210.42553,119.81465 C 211.69956,119.81465 212.72523,120.84031 212.72523,122.11434 L 212.72523,152.27196 C 212.72523,153.54599 211.69956,154.57165 210.42553,154.57165 L 204.02692,154.57165 C 202.75289,154.57165 201.72723,153.54599 201.72723,152.27196 L 201.72723,122.11434 C 201.72723,120.84031 202.75289,119.81465 204.02692,119.81465 z M 243.70254,110.74588 C 238.17677,110.74588 233.7338,115.18886 233.73379,120.71463 L 233.73379,163.65213 L 245.04629,163.65213 L 245.04629,142.40213 L 256.04629,142.40213 L 256.04629,163.65213 L 267.35879,163.65213 L 267.35879,120.71463 C 267.35879,115.18886 262.9158,110.74588 257.39004,110.74588 L 243.70254,110.74588 z M 247.35879,119.80838 L 253.73379,119.80838 C 255.00781,119.80838 256.04629,120.84685 256.04629,122.12088 L 256.04629,133.33963 L 245.04629,133.33963 L 245.04629,122.12088 C 245.04629,120.84685 246.08476,119.80838 247.35879,119.80838 z M 287.01211,110.74588 C 281.48634,110.74588 277.04337,115.18886 277.04336,120.71463 L 277.04336,163.65213 L 288.35586,163.65213 L 288.35586,142.40213 L 299.35586,142.40213 L 299.35586,163.65213 L 310.66836,163.65213 L 310.66836,120.71463 C 310.66836,115.18886 306.22537,110.74588 300.69961,110.74588 L 287.01211,110.74588 z M 290.66836,119.80838 L 297.04336,119.80838 C 298.31738,119.80838 299.35586,120.84685 299.35586,122.12088 L 299.35586,133.33963 L 288.35586,133.33963 L 288.35586,122.12088 C 288.35586,120.84685 289.39433,119.80838 290.66836,119.80838 z M 147.0624,110.74588 L 147.0624,163.65213 L 158.40615,163.65213 L 158.40615,122.12088 C 158.40614,120.84685 159.41337,119.80838 160.6874,119.80838 L 167.09365,119.80838 C 168.36768,119.80838 169.40615,120.84685 169.40615,122.12088 L 169.40615,163.65213 L 180.71865,163.65213 L 180.71865,120.71463 C 180.71865,115.18886 176.27567,110.74588 170.7499,110.74588 L 147.0624,110.74588 z"
   id="path3766"
   style="fill:#263f78;fill-opacity:1;fill-rule:evenodd" /></svg>