<svg version="1.1" id="Layer_1" xmlns="http://www.w3.org/2000/svg" xmlns:xlink="http://www.w3.org/1999/xlink" x="0px" y="0px"
	 width="230px" height="230px" viewBox="0 0 230 230" enable-background="new 0 0 720 219.338" xml:space="preserve"><path fill="#00A886" d="M215.654,110.408c0,0,0.379,0,0.732,0c0,0.367,0,0.732,0,0.732c0,59.664-48.525,108.197-108.189,108.197
			C48.545,219.338,0,170.805,0,111.141c0,0,0-0.365,0-0.732c1.307,0,23.812,0,25.129,0c0,0.367,0,0.732,0,0.732
			c0,45.82,37.254,83.084,83.068,83.084c45.816,0,83.078-37.264,83.078-83.084c0,0,0-0.365,0-0.732
			C192.611,110.408,215.654,110.408,215.654,110.408z"/>
		<path fill="#007AC2" d="M106.934,178.645l1.043-0.016c-0.025,0,0.221,0,0.221,0l0.803,0.016c37.252,0,66.914-29.947,67.525-68.184
			c0.191-10.516-5.033-22.736-6.504-25.24L121.309,0H94.625L45.9,85.244c-1.467,2.48-6.68,14.68-6.514,25.217
			C40.008,148.697,69.686,178.645,106.934,178.645z M64.852,110.408c0-7.467,3.049-14.379,5.688-19.551
			c0.059-0.107,35.166-59.537,37.426-63.373c2.264,3.836,37.447,63.408,37.447,63.408c2.604,5.125,5.68,12.039,5.68,19.516
			c0,23.447-18.902,42.529-42.109,42.529h-0.76c-0.041,0-0.258,0-0.258,0h-0.205c-0.059,0-0.805,0-0.805,0
			C83.729,152.938,64.852,133.855,64.852,110.408z"/></svg>